<svg width="176" height="30" viewBox="0 0 176 30" fill="none" xmlns="http://www.w3.org/2000/svg">
<g clip-path="url(#clip0_11274_2782)">
<path d="M172.551 24.1383C171.123 24.1383 169.987 24.0218 169.144 23.7869C168.3 23.5284 167.692 23.0488 167.316 22.3442C166.965 21.6179 166.789 20.5738 166.789 19.214V0.637695H172.13V17.8068C172.13 18.6278 172.294 19.1666 172.622 19.4252C172.95 19.6601 173.558 19.7764 174.449 19.7764H175.96V24.1383H172.553H172.551Z" fill="black"/>
<path d="M152.462 24.5605C151.362 24.5605 150.354 24.3493 149.44 23.9269C148.525 23.5046 147.8 22.9184 147.261 22.1684C146.722 21.3947 146.453 20.4789 146.453 19.4249C146.453 17.994 146.945 16.8572 147.929 16.0124C148.936 15.1677 150.307 14.5342 152.039 14.1118C153.774 13.6894 155.765 13.3973 158.013 13.2315C158.013 11.9881 157.813 11.1098 157.416 10.5927C157.017 10.0776 156.245 9.81902 155.097 9.81902C154.37 9.81902 153.726 9.99468 153.165 10.346C152.626 10.6736 152.263 11.1907 152.077 11.8934L147.579 10.2749C148.164 9.10257 149.138 8.12954 150.495 7.35389C151.877 6.5802 153.562 6.19336 155.553 6.19336C158.036 6.19336 159.944 6.74402 161.28 7.84731C162.615 8.9506 163.283 10.8256 163.283 13.4763V17.3111C163.283 18.0611 163.306 18.8703 163.354 19.7388C163.401 20.6072 163.47 21.4282 163.565 22.2019C163.658 22.9756 163.765 23.621 163.881 24.1361H158.927L158.295 22.0263C157.639 22.9401 156.808 23.5973 155.8 23.996C154.817 24.371 153.704 24.5585 152.462 24.5585V24.5605ZM154.429 20.9013C155.484 20.9013 156.361 20.619 157.064 20.0565C157.768 19.494 158.119 18.4144 158.119 16.8197V16.3973C156.268 16.5611 154.781 16.8197 153.657 17.171C152.533 17.4986 151.97 18.1203 151.97 19.0361C151.97 19.5986 152.205 20.0565 152.673 20.4079C153.142 20.7355 153.728 20.9013 154.429 20.9013Z" fill="black"/>
<path d="M127.262 24.1382V6.68873H131.935L132.603 9.00979C133.002 8.35255 133.658 7.719 134.57 7.10913C135.507 6.49926 136.642 6.19531 137.978 6.19531C140.226 6.19531 141.761 6.82886 142.58 8.09597C143.424 9.33939 143.844 11.1453 143.844 13.5137V24.1382H138.503V14.8499C138.503 14.0289 138.456 13.2789 138.363 12.598C138.27 11.917 138.035 11.3782 137.66 10.9795C137.308 10.5572 136.7 10.346 135.833 10.346C134.709 10.346 133.889 10.7565 133.373 11.5775C132.858 12.3749 132.601 13.571 132.601 15.1657V24.1362H127.26L127.262 24.1382Z" fill="black"/>
<path d="M114.189 24.1382V6.68893H118.405L119.353 9.89023C119.892 8.48299 120.629 7.49814 121.567 6.93564C122.504 6.37314 123.639 6.12641 124.975 6.19746V11.5442C124.694 11.4968 124.447 11.4731 124.238 11.4731C124.027 11.4494 123.793 11.4376 123.535 11.4376C122.247 11.4376 121.251 11.7416 120.548 12.3514C119.868 12.9613 119.529 13.958 119.529 15.3415V24.1362H114.188L114.189 24.1382Z" fill="black"/>
<path d="M102.932 24.5603C101.057 24.5603 99.3938 24.1972 97.9419 23.4689C96.5138 22.7189 95.3879 21.6511 94.5681 20.2676C93.7721 18.8841 93.373 17.2302 93.373 15.3078C93.373 13.3854 93.7938 11.8479 94.6372 10.4881C95.5044 9.12819 96.6402 8.07227 98.0447 7.32227C99.4728 6.57227 101.031 6.19727 102.718 6.19727C104.638 6.19727 106.278 6.65516 107.637 7.56898C109.019 8.46108 110.06 9.70253 110.764 11.2992C111.467 12.8703 111.759 14.6881 111.643 16.7525H98.7479C98.8407 17.9723 99.2871 18.8861 100.083 19.496C100.903 20.1057 101.806 20.4097 102.789 20.4097C103.609 20.4097 104.312 20.2932 104.897 20.0584C105.505 19.7998 105.974 19.4841 106.301 19.1091L110.552 20.6564C109.64 21.9926 108.49 22.9774 107.109 23.611C105.75 24.2446 104.358 24.5603 102.928 24.5603H102.932ZM98.7498 13.5828H106.691C106.667 12.4578 106.28 11.6131 105.531 11.0506C104.782 10.4644 103.892 10.1703 102.86 10.1703C101.829 10.1703 100.952 10.4407 100.154 10.9795C99.3819 11.5183 98.9138 12.3867 98.7498 13.5828Z" fill="black"/>
<path d="M73.3574 29.8025V6.68871H77.9954L78.6987 9.08082C79.2616 8.11963 80.0458 7.40319 81.0532 6.93542C82.0843 6.442 83.068 6.19727 84.0043 6.19727C85.5036 6.19727 86.8271 6.57227 87.9747 7.32227C89.1461 8.07227 90.0587 9.14003 90.7145 10.5236C91.3703 11.8834 91.6982 13.5137 91.6982 15.4144C91.6982 17.315 91.3703 18.9552 90.7145 20.3406C90.0587 21.7005 89.1461 22.7446 87.9747 23.4728C86.8271 24.1992 85.5036 24.5643 84.0043 24.5643C83.068 24.5643 82.0843 24.3176 81.0532 23.8261C80.0458 23.3327 79.2616 22.6064 78.6987 21.6452V29.8084H73.3574V29.8025ZM82.3174 20.4097C83.3485 20.4097 84.2374 19.9873 84.988 19.1427C85.7604 18.2979 86.1475 17.0545 86.1475 15.4124C86.1475 13.7703 85.7604 12.5742 84.988 11.6821C84.2394 10.79 83.3485 10.3459 82.3174 10.3459C81.2863 10.3459 80.35 10.7209 79.5777 11.4709C78.829 12.2209 78.4537 13.4999 78.4537 15.3058C78.4537 17.1117 78.829 18.3907 79.5777 19.2117C80.35 20.009 81.2646 20.4077 82.3174 20.4077V20.4097Z" fill="black"/>
<path d="M59.3628 24.5603C57.8161 24.5603 56.5993 24.278 55.7085 23.7155C54.8413 23.1293 54.2211 22.2846 53.8458 21.1833C53.4942 20.08 53.3184 18.7437 53.3184 17.1727V6.68848H58.6596V16.4345C58.6596 18.0293 58.8947 19.097 59.3628 19.6358C59.8547 20.1511 60.5342 20.4096 61.4013 20.4096C62.4561 20.4096 63.2166 20.0583 63.6848 19.3536C64.1766 18.649 64.4216 17.4885 64.4216 15.8701V6.68848H69.7964V24.1399H65.1584L64.4196 21.6767C63.904 22.5451 63.2601 23.2478 62.4877 23.7886C61.7391 24.3037 60.6961 24.5622 59.3608 24.5622L59.3628 24.5603Z" fill="black"/>
<path d="M40.8406 24.5602C38.2865 24.5602 36.1315 24.0451 34.3754 23.0129C32.6411 21.957 31.4125 20.4905 30.6855 18.6155L35.7443 16.7859C36.0722 17.9109 36.6806 18.7438 37.5715 19.2846C38.4841 19.8234 39.5863 20.0938 40.8742 20.0938C41.5537 20.0938 42.2095 20.0227 42.8416 19.8826C43.4737 19.7188 44.0011 19.4603 44.4218 19.1089C44.8426 18.7339 45.0539 18.2405 45.0539 17.6307C45.0539 16.8096 44.6549 16.1761 43.8589 15.73C43.0628 15.2603 42.0317 14.9089 40.7675 14.6741L37.9211 14.1116C36.6569 13.853 35.4737 13.4662 34.3734 12.9511C33.2949 12.4122 32.4297 11.7076 31.7739 10.8392C31.1181 9.9471 30.7902 8.83395 30.7902 7.49776C30.7902 6.23066 31.0826 5.14118 31.6692 4.22539C32.2539 3.31158 33.0283 2.55961 33.9883 1.97342C34.972 1.38723 36.0505 0.953024 37.2199 0.670787C38.3912 0.36684 39.5626 0.212891 40.7339 0.212891C41.9981 0.212891 43.2169 0.38855 44.3883 0.739866C45.5833 1.09118 46.648 1.64382 47.5863 2.39382C48.5226 3.12013 49.2376 4.09513 49.7295 5.31487L44.7043 7.14447C44.4001 6.3471 43.849 5.73724 43.053 5.31487C42.2806 4.8925 41.3423 4.68132 40.2421 4.68132C39.1418 4.68132 38.2628 4.88066 37.5359 5.27934C36.8327 5.65434 36.4811 6.205 36.4811 6.93329C36.4811 7.51947 36.726 8.02474 37.2179 8.4471C37.7097 8.86947 38.3537 9.16158 39.1497 9.32737L42.3122 9.96092C43.2722 10.1484 44.2441 10.3951 45.2278 10.6991C46.2115 10.9813 47.1142 11.3682 47.9339 11.8596C48.7774 12.3293 49.4569 12.9629 49.9725 13.7603C50.488 14.5576 50.7448 15.5662 50.7448 16.7859C50.7448 18.0057 50.4525 19.1425 49.8658 20.1273C49.3028 21.0885 48.5423 21.8977 47.5823 22.555C46.646 23.2122 45.5912 23.7155 44.4199 24.0688C43.2485 24.3964 42.0534 24.5622 40.8367 24.5622L40.8406 24.5602Z" fill="black"/>
<path d="M4.48633 1.22369C4.48633 0.548686 5.03349 0 5.70904 0C6.3846 0 6.93176 0.546713 6.93176 1.22369V23.6487C6.93176 24.3237 6.3846 24.8724 5.70904 24.8724C5.03349 24.8724 4.48633 24.3257 4.48633 23.6487V1.22369Z" fill="black"/>
<path d="M13.4551 1.22369C13.4551 0.548686 14.0022 0 14.6778 0C15.3533 0 15.9005 0.546713 15.9005 1.22369V23.6487C15.9005 24.3237 15.3533 24.8724 14.6778 24.8724C14.0022 24.8724 13.4551 24.3257 13.4551 23.6487V1.22369Z" fill="black"/>
<path d="M8.9707 8.15532C8.9707 7.48032 9.51786 6.93164 10.1934 6.93164C10.869 6.93164 11.4161 7.47835 11.4161 8.15532V23.6487C11.4161 24.3237 10.869 24.8724 10.1934 24.8724C9.51786 24.8724 8.9707 24.3257 8.9707 23.6487V8.15532Z" fill="black"/>
<path d="M17.9395 2.44536C17.9395 1.77037 18.4866 1.22168 19.1622 1.22168C19.8377 1.22168 20.3848 1.76839 20.3848 2.44536V17.9388C20.3848 18.6138 19.8377 19.1625 19.1622 19.1625C18.4866 19.1625 17.9395 18.6158 17.9395 17.9388V2.44536Z" fill="black"/>
<path d="M0 8.15533C0 7.48032 0.54716 6.93164 1.22272 6.93164C1.89827 6.93164 2.44543 7.47835 2.44543 8.15533V10.6007C2.44543 11.2757 1.89827 11.8244 1.22272 11.8244C0.54716 11.8244 0 11.2777 0 10.6007V8.15533Z" fill="black"/>
</g>
<defs>
<clipPath id="clip0_11274_2782">
<rect width="176" height="30" fill="white"/>
</clipPath>
</defs>
</svg>
